<svg width="16" height="10" viewBox="0 0 16 10" fill="none" xmlns="http://www.w3.org/2000/svg">
<path fill-rule="evenodd" clip-rule="evenodd" d="M14.6989 0.57282L7.75665 7.51504L5.31141 5.07683C5.18013 4.94526 5.0019 4.87132 4.81604 4.87132C4.63017 4.87132 4.45194 4.94526 4.32067 5.07683C4.04663 5.35087 4.04663 5.79354 4.32067 6.06757L7.25776 9.00467C7.5318 9.2787 7.97447 9.2787 8.2485 9.00467L15.6896 1.57059C15.9637 1.29655 15.9637 0.853882 15.6896 0.579847H15.6826C15.4156 0.298785 14.9729 0.298785 14.6989 0.57282ZM11.7196 0.579847C11.5883 0.448273 11.4101 0.374331 11.2242 0.374331C11.0384 0.374331 10.8602 0.448273 10.7289 0.579847L6.7659 4.54281L7.75665 5.53356L11.7196 1.56356C11.9866 1.29655 11.9866 0.846855 11.7196 0.579847ZM3.28776 9.01169L0.350668 6.0746C0.0766328 5.80057 0.0766328 5.35087 0.350668 5.07683C0.481946 4.94526 0.660175 4.87132 0.846039 4.87132C1.0319 4.87132 1.21013 4.94526 1.34141 5.07683L4.77036 8.51984L4.27851 9.01169C4.00447 9.28573 3.5618 9.28573 3.28776 9.01169Z" fill="#00A0AB"/>
</svg>
