<svg width="17" height="17" viewBox="0 0 17 17" fill="none" xmlns="http://www.w3.org/2000/svg">
<path fill-rule="evenodd" clip-rule="evenodd" d="M16.1213 4.16217C16.4625 3.82092 16.4625 3.26967 16.1213 2.92842L14.0738 0.880925C13.9103 0.717079 13.6883 0.625 13.4569 0.625C13.2254 0.625 13.0035 0.717079 12.84 0.880925L11.2388 2.48217L14.52 5.76342L16.1213 4.16217ZM0.625 13.2797V15.9397C0.625 16.1847 0.8175 16.3772 1.0625 16.3772H3.7225C3.83625 16.3772 3.95 16.3334 4.02875 16.2459L13.5837 6.69967L10.3025 3.41842L0.75625 12.9647C0.66875 13.0522 0.625 13.1572 0.625 13.2797ZM11.1075 6.6975L10.3025 5.8925L2.375 13.82V14.625H3.18L11.1075 6.6975Z" fill="white"/>
</svg>
