<svg xmlns="http://www.w3.org/2000/svg" width="20" height="20" viewBox="0 0 20 20">
    <g fill="none">
        <path fill="#1977F3" d="M18.963 9.481C18.963 4.245 14.718 0 9.48 0 4.245 0 0 4.245 0 9.481c0 4.733 3.467 8.655 8 9.367v-6.625H5.592V9.48H8V7.392c0-2.376 1.416-3.69 3.581-3.69 1.038 0 2.123.186 2.123.186v2.333h-1.196c-1.177 0-1.545.731-1.545 1.482V9.48h2.63l-.42 2.742h-2.21v6.625c4.533-.71 8-4.633 8-9.367z"/>
        <path fill="#FEFEFE" d="M13.172 12.223l.42-2.742h-2.63V7.703c0-.75.367-1.482 1.546-1.482h1.196V3.888s-1.085-.185-2.123-.185c-2.165 0-3.58 1.312-3.58 3.69V9.48H5.591v2.742H8v6.625c.483.076.977.115 1.481.115.504 0 1-.04 1.482-.115v-6.625h2.21z"/>
    </g>
</svg>
