<svg width="16" height="15" viewBox="0 0 16 15" fill="none" xmlns="http://www.w3.org/2000/svg">
<path fill-rule="evenodd" clip-rule="evenodd" d="M15.75 4.725C15.75 3.85087 15.0491 3.15 14.175 3.15H11.025V1.575C11.025 0.700874 10.3241 0 9.45 0H6.3C5.42588 0 4.725 0.700874 4.725 1.575V3.15H1.575C0.700875 3.15 0.007875 3.85087 0.007875 4.725L0 13.3875C0 14.2616 0.700875 14.9625 1.575 14.9625H14.175C15.0491 14.9625 15.75 14.2616 15.75 13.3875V4.725ZM9.45 3.15V1.575H6.3V3.15H9.45ZM1.575 5.5125V12.6C1.575 13.0331 1.92938 13.3875 2.3625 13.3875H13.3875C13.8206 13.3875 14.175 13.0331 14.175 12.6V5.5125C14.175 5.07937 13.8206 4.725 13.3875 4.725H2.3625C1.92938 4.725 1.575 5.07937 1.575 5.5125Z" fill="white"/>
</svg>
