<svg width="17" height="12" viewBox="0 0 17 12" fill="none" xmlns="http://www.w3.org/2000/svg">
<path fill-rule="evenodd" clip-rule="evenodd" d="M9.20643 3.66299C9.20643 5.18286 7.97006 6.41923 6.45018 6.41923C4.93031 6.41923 3.69393 5.18286 3.69393 3.66299C3.69393 2.14311 4.93031 0.906738 6.45018 0.906738C7.97006 0.906738 9.20643 2.14311 9.20643 3.66299ZM7.63143 3.66299C7.63143 3.00936 7.10381 2.48174 6.45018 2.48174C5.79656 2.48174 5.26893 3.00936 5.26893 3.66299C5.26893 4.31661 5.79656 4.84423 6.45018 4.84423C7.10381 4.84423 7.63143 4.31661 7.63143 3.66299ZM6.45018 7.79736C4.60743 7.79736 0.937683 8.71873 0.937683 10.5536V11.1442C0.937683 11.5774 1.29206 11.9317 1.72518 11.9317H11.1752C11.6083 11.9317 11.9627 11.5774 11.9627 11.1442V10.5536C11.9627 8.71873 8.29293 7.79736 6.45018 7.79736ZM6.45018 9.37236C5.04056 9.37236 3.44193 9.89998 2.78043 10.3567H10.1199C9.45843 9.89998 7.85981 9.37236 6.45018 9.37236ZM11.9942 7.84461C12.9077 8.50611 13.5377 9.38811 13.5377 10.5536V11.9317H15.9002C16.3333 11.9317 16.6877 11.5774 16.6877 11.1442V10.5536C16.6877 8.96286 13.9314 8.05723 11.9942 7.84461ZM13.9314 3.66299C13.9314 5.18286 12.6951 6.41923 11.1752 6.41923C10.7499 6.41923 10.3562 6.31686 9.99393 6.14361C10.4901 5.44273 10.7814 4.58436 10.7814 3.66299C10.7814 2.74161 10.4901 1.88324 9.99393 1.18236C10.3562 1.00911 10.7499 0.906738 11.1752 0.906738C12.6951 0.906738 13.9314 2.14311 13.9314 3.66299Z" fill="#130242"/>
</svg>
